<mxfile host="app.diagrams.net" modified="2021-01-12T15:09:20.011Z" agent="5.0 (Windows)" etag="YJhs6Jf0ELE0MbnG6emw" version="13.10.3" type="github">
  <diagram id="3Fb4z0XGUThVQZk8RID5" name="Page-1">
    <mxGraphModel dx="782" dy="469" grid="1" gridSize="10" guides="1" tooltips="1" connect="1" arrows="1" fold="1" page="1" pageScale="1" pageWidth="827" pageHeight="1169" math="0" shadow="0">
      <root>
        <mxCell id="0" />
        <mxCell id="1" parent="0" />
        <mxCell id="AFIAiBZsqAD6h3aXdUzZ-1" value="platoon" style="html=1;align=left;verticalAlign=top;rounded=1;absoluteArcSize=1;arcSize=10;dashed=0;" vertex="1" parent="1">
          <mxGeometry x="113.25" y="340" width="130" height="63.12" as="geometry" />
        </mxCell>
        <mxCell id="AFIAiBZsqAD6h3aXdUzZ-3" value="" style="rounded=0;orthogonalLoop=1;jettySize=auto;html=1;endArrow=halfCircle;endFill=0;endSize=6;strokeWidth=1;exitX=0;exitY=0.5;exitDx=0;exitDy=0;entryX=0.5;entryY=0.5;entryDx=0;entryDy=0;entryPerimeter=0;" edge="1" parent="1" source="AFIAiBZsqAD6h3aXdUzZ-6">
          <mxGeometry relative="1" as="geometry">
            <mxPoint x="408.37" y="300" as="sourcePoint" />
            <mxPoint x="173.37" y="130" as="targetPoint" />
          </mxGeometry>
        </mxCell>
        <mxCell id="AFIAiBZsqAD6h3aXdUzZ-5" value="vehicle" style="html=1;align=center;verticalAlign=top;rounded=1;absoluteArcSize=1;arcSize=10;dashed=0;" vertex="1" parent="1">
          <mxGeometry x="198.37" y="100" width="95" height="110" as="geometry" />
        </mxCell>
        <mxCell id="AFIAiBZsqAD6h3aXdUzZ-6" value="connV" style="html=1;" vertex="1" parent="1">
          <mxGeometry x="198.37" y="120" width="35" height="20" as="geometry" />
        </mxCell>
        <mxCell id="AFIAiBZsqAD6h3aXdUzZ-7" value="next" style="html=1;" vertex="1" parent="1">
          <mxGeometry x="263.37" y="120" width="30" height="20" as="geometry" />
        </mxCell>
        <mxCell id="AFIAiBZsqAD6h3aXdUzZ-19" value="leader" style="html=1;" vertex="1" parent="1">
          <mxGeometry x="113.25" y="365" width="35" height="20" as="geometry" />
        </mxCell>
        <mxCell id="AFIAiBZsqAD6h3aXdUzZ-21" value="" style="rounded=0;orthogonalLoop=1;jettySize=auto;html=1;endArrow=halfCircle;endFill=0;endSize=6;strokeWidth=1;" edge="1" parent="1">
          <mxGeometry relative="1" as="geometry">
            <mxPoint x="154.62" y="370" as="sourcePoint" />
            <mxPoint x="154.62" y="370" as="targetPoint" />
          </mxGeometry>
        </mxCell>
        <mxCell id="AFIAiBZsqAD6h3aXdUzZ-26" value="&lt;div align=&quot;center&quot;&gt;&amp;nbsp;road&lt;/div&gt;" style="html=1;align=center;verticalAlign=top;rounded=1;absoluteArcSize=1;arcSize=10;dashed=0;" vertex="1" parent="1">
          <mxGeometry x="40" y="260" width="58.25" height="56.88" as="geometry" />
        </mxCell>
        <mxCell id="AFIAiBZsqAD6h3aXdUzZ-27" value="moving" style="html=1;" vertex="1" parent="1">
          <mxGeometry x="58.25" y="278.44" width="40" height="20" as="geometry" />
        </mxCell>
        <mxCell id="AFIAiBZsqAD6h3aXdUzZ-34" value="station" style="html=1;align=center;verticalAlign=top;rounded=1;absoluteArcSize=1;arcSize=10;dashed=0;" vertex="1" parent="1">
          <mxGeometry x="360" y="298.44" width="95" height="50" as="geometry" />
        </mxCell>
        <mxCell id="AFIAiBZsqAD6h3aXdUzZ-35" value="refill" style="html=1;" vertex="1" parent="1">
          <mxGeometry x="409" y="320" width="46" height="20" as="geometry" />
        </mxCell>
        <mxCell id="AFIAiBZsqAD6h3aXdUzZ-36" value="docks" style="html=1;" vertex="1" parent="1">
          <mxGeometry x="198.37" y="160" width="35" height="20" as="geometry" />
        </mxCell>
        <mxCell id="AFIAiBZsqAD6h3aXdUzZ-37" value="" style="rounded=0;orthogonalLoop=1;jettySize=auto;html=1;endArrow=halfCircle;endFill=0;endSize=6;strokeWidth=1;exitX=0;exitY=0.5;exitDx=0;exitDy=0;entryX=0.5;entryY=0.5;entryDx=0;entryDy=0;entryPerimeter=0;" edge="1" parent="1">
          <mxGeometry relative="1" as="geometry">
            <mxPoint x="198.37" y="169.5" as="sourcePoint" />
            <mxPoint x="173.37" y="169.5" as="targetPoint" />
          </mxGeometry>
        </mxCell>
        <mxCell id="AFIAiBZsqAD6h3aXdUzZ-38" value="" style="rounded=0;orthogonalLoop=1;jettySize=auto;html=1;endArrow=none;endFill=0;exitX=1;exitY=0.5;exitDx=0;exitDy=0;" edge="1" parent="1" target="AFIAiBZsqAD6h3aXdUzZ-39">
          <mxGeometry relative="1" as="geometry">
            <mxPoint x="293.3699999999999" y="130" as="sourcePoint" />
          </mxGeometry>
        </mxCell>
        <mxCell id="AFIAiBZsqAD6h3aXdUzZ-39" value="" style="ellipse;whiteSpace=wrap;html=1;fontFamily=Helvetica;fontSize=12;fontColor=#000000;align=center;strokeColor=#000000;fillColor=#ffffff;points=[];aspect=fixed;resizable=0;" vertex="1" parent="1">
          <mxGeometry x="305.87" y="125" width="10" height="10" as="geometry" />
        </mxCell>
        <mxCell id="AFIAiBZsqAD6h3aXdUzZ-41" value="" style="rounded=0;orthogonalLoop=1;jettySize=auto;html=1;endArrow=none;endFill=0;exitX=1;exitY=0.5;exitDx=0;exitDy=0;" edge="1" parent="1" target="AFIAiBZsqAD6h3aXdUzZ-42">
          <mxGeometry relative="1" as="geometry">
            <mxPoint x="454.9999999999999" y="330" as="sourcePoint" />
          </mxGeometry>
        </mxCell>
        <mxCell id="AFIAiBZsqAD6h3aXdUzZ-42" value="" style="ellipse;whiteSpace=wrap;html=1;fontFamily=Helvetica;fontSize=12;fontColor=#000000;align=center;strokeColor=#000000;fillColor=#ffffff;points=[];aspect=fixed;resizable=0;" vertex="1" parent="1">
          <mxGeometry x="467.5" y="325" width="10" height="10" as="geometry" />
        </mxCell>
        <mxCell id="AFIAiBZsqAD6h3aXdUzZ-43" value="" style="rounded=0;orthogonalLoop=1;jettySize=auto;html=1;endArrow=none;endFill=0;exitX=1;exitY=0.5;exitDx=0;exitDy=0;" edge="1" parent="1">
          <mxGeometry relative="1" as="geometry">
            <mxPoint x="454.9999999999999" y="330.00000000000006" as="sourcePoint" />
            <mxPoint x="467.5" y="330.00000000000006" as="targetPoint" />
          </mxGeometry>
        </mxCell>
        <mxCell id="AFIAiBZsqAD6h3aXdUzZ-44" value="" style="rounded=0;orthogonalLoop=1;jettySize=auto;html=1;endArrow=none;endFill=0;exitX=1;exitY=0.5;exitDx=0;exitDy=0;" edge="1" parent="1" target="AFIAiBZsqAD6h3aXdUzZ-45">
          <mxGeometry relative="1" as="geometry">
            <mxPoint x="454.9999999999999" y="330.00000000000006" as="sourcePoint" />
          </mxGeometry>
        </mxCell>
        <mxCell id="AFIAiBZsqAD6h3aXdUzZ-45" value="" style="ellipse;whiteSpace=wrap;html=1;fontFamily=Helvetica;fontSize=12;fontColor=#000000;align=center;strokeColor=#000000;fillColor=#ffffff;points=[];aspect=fixed;resizable=0;" vertex="1" parent="1">
          <mxGeometry x="467.5" y="325" width="10" height="10" as="geometry" />
        </mxCell>
        <mxCell id="AFIAiBZsqAD6h3aXdUzZ-46" value="" style="rounded=0;orthogonalLoop=1;jettySize=auto;html=1;endArrow=none;endFill=0;exitX=1;exitY=0.5;exitDx=0;exitDy=0;" edge="1" parent="1">
          <mxGeometry relative="1" as="geometry">
            <mxPoint x="454.9999999999999" y="330.00000000000006" as="sourcePoint" />
            <mxPoint x="467.5" y="330.00000000000006" as="targetPoint" />
          </mxGeometry>
        </mxCell>
        <mxCell id="AFIAiBZsqAD6h3aXdUzZ-47" value="" style="rounded=0;orthogonalLoop=1;jettySize=auto;html=1;endArrow=none;endFill=0;exitX=1;exitY=0.5;exitDx=0;exitDy=0;" edge="1" parent="1" target="AFIAiBZsqAD6h3aXdUzZ-48">
          <mxGeometry relative="1" as="geometry">
            <mxPoint x="98.25" y="288.44" as="sourcePoint" />
          </mxGeometry>
        </mxCell>
        <mxCell id="AFIAiBZsqAD6h3aXdUzZ-48" value="" style="ellipse;whiteSpace=wrap;html=1;fontFamily=Helvetica;fontSize=12;fontColor=#000000;align=center;strokeColor=#000000;fillColor=#ffffff;points=[];aspect=fixed;resizable=0;" vertex="1" parent="1">
          <mxGeometry x="110.75" y="283.44" width="10" height="10" as="geometry" />
        </mxCell>
        <mxCell id="AFIAiBZsqAD6h3aXdUzZ-49" value="" style="rounded=0;orthogonalLoop=1;jettySize=auto;html=1;endArrow=none;endFill=0;exitX=1;exitY=0.5;exitDx=0;exitDy=0;" edge="1" parent="1">
          <mxGeometry relative="1" as="geometry">
            <mxPoint x="98.25" y="288.44" as="sourcePoint" />
            <mxPoint x="110.75" y="288.44" as="targetPoint" />
          </mxGeometry>
        </mxCell>
        <mxCell id="AFIAiBZsqAD6h3aXdUzZ-50" value="" style="rounded=0;orthogonalLoop=1;jettySize=auto;html=1;endArrow=none;endFill=0;exitX=1;exitY=0.5;exitDx=0;exitDy=0;" edge="1" parent="1" target="AFIAiBZsqAD6h3aXdUzZ-51">
          <mxGeometry relative="1" as="geometry">
            <mxPoint x="98.25" y="288.44" as="sourcePoint" />
          </mxGeometry>
        </mxCell>
        <mxCell id="AFIAiBZsqAD6h3aXdUzZ-51" value="" style="ellipse;whiteSpace=wrap;html=1;fontFamily=Helvetica;fontSize=12;fontColor=#000000;align=center;strokeColor=#000000;fillColor=#ffffff;points=[];aspect=fixed;resizable=0;" vertex="1" parent="1">
          <mxGeometry x="110.75" y="283.44" width="10" height="10" as="geometry" />
        </mxCell>
        <mxCell id="AFIAiBZsqAD6h3aXdUzZ-52" value="" style="rounded=0;orthogonalLoop=1;jettySize=auto;html=1;endArrow=none;endFill=0;exitX=1;exitY=0.5;exitDx=0;exitDy=0;" edge="1" parent="1">
          <mxGeometry relative="1" as="geometry">
            <mxPoint x="98.25" y="288.44" as="sourcePoint" />
            <mxPoint x="110.75" y="288.44" as="targetPoint" />
          </mxGeometry>
        </mxCell>
        <mxCell id="AFIAiBZsqAD6h3aXdUzZ-53" value="offering" style="html=1;" vertex="1" parent="1">
          <mxGeometry x="70" y="365" width="43.25" height="20" as="geometry" />
        </mxCell>
        <mxCell id="AFIAiBZsqAD6h3aXdUzZ-56" value="" style="rounded=0;orthogonalLoop=1;jettySize=auto;html=1;endArrow=halfCircle;endFill=0;endSize=6;strokeWidth=1;" edge="1" parent="1">
          <mxGeometry relative="1" as="geometry">
            <mxPoint x="193.37" y="537" as="sourcePoint" />
            <mxPoint x="193.37" y="537" as="targetPoint" />
          </mxGeometry>
        </mxCell>
        <mxCell id="AFIAiBZsqAD6h3aXdUzZ-58" value="" style="rounded=0;orthogonalLoop=1;jettySize=auto;html=1;endArrow=none;endFill=0;exitX=1;exitY=0.5;exitDx=0;exitDy=0;" edge="1" parent="1" target="AFIAiBZsqAD6h3aXdUzZ-59">
          <mxGeometry relative="1" as="geometry">
            <mxPoint x="455" y="330" as="sourcePoint" />
          </mxGeometry>
        </mxCell>
        <mxCell id="AFIAiBZsqAD6h3aXdUzZ-59" value="" style="ellipse;whiteSpace=wrap;html=1;fontFamily=Helvetica;fontSize=12;fontColor=#000000;align=center;strokeColor=#000000;fillColor=#ffffff;points=[];aspect=fixed;resizable=0;" vertex="1" parent="1">
          <mxGeometry x="467.5" y="325" width="10" height="10" as="geometry" />
        </mxCell>
        <mxCell id="AFIAiBZsqAD6h3aXdUzZ-60" value="" style="rounded=0;orthogonalLoop=1;jettySize=auto;html=1;endArrow=none;endFill=0;exitX=1;exitY=0.5;exitDx=0;exitDy=0;" edge="1" parent="1">
          <mxGeometry relative="1" as="geometry">
            <mxPoint x="455" y="330" as="sourcePoint" />
            <mxPoint x="467.5" y="330" as="targetPoint" />
          </mxGeometry>
        </mxCell>
        <mxCell id="AFIAiBZsqAD6h3aXdUzZ-61" value="" style="rounded=0;orthogonalLoop=1;jettySize=auto;html=1;endArrow=none;endFill=0;exitX=1;exitY=0.5;exitDx=0;exitDy=0;" edge="1" parent="1" target="AFIAiBZsqAD6h3aXdUzZ-62">
          <mxGeometry relative="1" as="geometry">
            <mxPoint x="455" y="330" as="sourcePoint" />
          </mxGeometry>
        </mxCell>
        <mxCell id="AFIAiBZsqAD6h3aXdUzZ-62" value="" style="ellipse;whiteSpace=wrap;html=1;fontFamily=Helvetica;fontSize=12;fontColor=#000000;align=center;strokeColor=#000000;fillColor=#ffffff;points=[];aspect=fixed;resizable=0;" vertex="1" parent="1">
          <mxGeometry x="467.5" y="325" width="10" height="10" as="geometry" />
        </mxCell>
        <mxCell id="AFIAiBZsqAD6h3aXdUzZ-63" value="" style="rounded=0;orthogonalLoop=1;jettySize=auto;html=1;endArrow=none;endFill=0;exitX=1;exitY=0.5;exitDx=0;exitDy=0;" edge="1" parent="1">
          <mxGeometry relative="1" as="geometry">
            <mxPoint x="455" y="330" as="sourcePoint" />
            <mxPoint x="467.5" y="330" as="targetPoint" />
          </mxGeometry>
        </mxCell>
        <mxCell id="AFIAiBZsqAD6h3aXdUzZ-64" value="" style="rounded=0;orthogonalLoop=1;jettySize=auto;html=1;endArrow=none;endFill=0;exitX=1;exitY=0.5;exitDx=0;exitDy=0;" edge="1" parent="1" target="AFIAiBZsqAD6h3aXdUzZ-65">
          <mxGeometry relative="1" as="geometry">
            <mxPoint x="148.25" y="375" as="sourcePoint" />
          </mxGeometry>
        </mxCell>
        <mxCell id="AFIAiBZsqAD6h3aXdUzZ-65" value="" style="ellipse;whiteSpace=wrap;html=1;fontFamily=Helvetica;fontSize=12;fontColor=#000000;align=center;strokeColor=#000000;fillColor=#ffffff;points=[];aspect=fixed;resizable=0;" vertex="1" parent="1">
          <mxGeometry x="160.75" y="370" width="10" height="10" as="geometry" />
        </mxCell>
        <mxCell id="AFIAiBZsqAD6h3aXdUzZ-66" value="" style="rounded=0;orthogonalLoop=1;jettySize=auto;html=1;endArrow=none;endFill=0;exitX=1;exitY=0.5;exitDx=0;exitDy=0;" edge="1" parent="1">
          <mxGeometry relative="1" as="geometry">
            <mxPoint x="148.25" y="375" as="sourcePoint" />
            <mxPoint x="160.75" y="375" as="targetPoint" />
          </mxGeometry>
        </mxCell>
        <mxCell id="AFIAiBZsqAD6h3aXdUzZ-67" value="" style="rounded=0;orthogonalLoop=1;jettySize=auto;html=1;endArrow=none;endFill=0;exitX=1;exitY=0.5;exitDx=0;exitDy=0;" edge="1" parent="1" target="AFIAiBZsqAD6h3aXdUzZ-68">
          <mxGeometry relative="1" as="geometry">
            <mxPoint x="148.25" y="375" as="sourcePoint" />
          </mxGeometry>
        </mxCell>
        <mxCell id="AFIAiBZsqAD6h3aXdUzZ-68" value="" style="ellipse;whiteSpace=wrap;html=1;fontFamily=Helvetica;fontSize=12;fontColor=#000000;align=center;strokeColor=#000000;fillColor=#ffffff;points=[];aspect=fixed;resizable=0;" vertex="1" parent="1">
          <mxGeometry x="160.75" y="370" width="10" height="10" as="geometry" />
        </mxCell>
        <mxCell id="AFIAiBZsqAD6h3aXdUzZ-69" value="" style="rounded=0;orthogonalLoop=1;jettySize=auto;html=1;endArrow=none;endFill=0;exitX=1;exitY=0.5;exitDx=0;exitDy=0;" edge="1" parent="1">
          <mxGeometry relative="1" as="geometry">
            <mxPoint x="148.25" y="375" as="sourcePoint" />
            <mxPoint x="160.75" y="375" as="targetPoint" />
          </mxGeometry>
        </mxCell>
        <mxCell id="AFIAiBZsqAD6h3aXdUzZ-70" value="" style="rounded=0;orthogonalLoop=1;jettySize=auto;html=1;endArrow=none;endFill=0;exitX=1;exitY=0.5;exitDx=0;exitDy=0;" edge="1" parent="1" target="AFIAiBZsqAD6h3aXdUzZ-71">
          <mxGeometry relative="1" as="geometry">
            <mxPoint x="148.25" y="375" as="sourcePoint" />
          </mxGeometry>
        </mxCell>
        <mxCell id="AFIAiBZsqAD6h3aXdUzZ-71" value="" style="ellipse;whiteSpace=wrap;html=1;fontFamily=Helvetica;fontSize=12;fontColor=#000000;align=center;strokeColor=#000000;fillColor=#ffffff;points=[];aspect=fixed;resizable=0;" vertex="1" parent="1">
          <mxGeometry x="160.75" y="370" width="10" height="10" as="geometry" />
        </mxCell>
        <mxCell id="AFIAiBZsqAD6h3aXdUzZ-72" value="" style="rounded=0;orthogonalLoop=1;jettySize=auto;html=1;endArrow=none;endFill=0;exitX=1;exitY=0.5;exitDx=0;exitDy=0;" edge="1" parent="1">
          <mxGeometry relative="1" as="geometry">
            <mxPoint x="148.25" y="375" as="sourcePoint" />
            <mxPoint x="160.75" y="375" as="targetPoint" />
          </mxGeometry>
        </mxCell>
        <mxCell id="AFIAiBZsqAD6h3aXdUzZ-73" value="" style="rounded=0;orthogonalLoop=1;jettySize=auto;html=1;endArrow=none;endFill=0;exitX=1;exitY=0.5;exitDx=0;exitDy=0;" edge="1" parent="1" target="AFIAiBZsqAD6h3aXdUzZ-74">
          <mxGeometry relative="1" as="geometry">
            <mxPoint x="148.25" y="375" as="sourcePoint" />
          </mxGeometry>
        </mxCell>
        <mxCell id="AFIAiBZsqAD6h3aXdUzZ-74" value="" style="ellipse;whiteSpace=wrap;html=1;fontFamily=Helvetica;fontSize=12;fontColor=#000000;align=center;strokeColor=#000000;fillColor=#ffffff;points=[];aspect=fixed;resizable=0;" vertex="1" parent="1">
          <mxGeometry x="160.75" y="370" width="10" height="10" as="geometry" />
        </mxCell>
        <mxCell id="AFIAiBZsqAD6h3aXdUzZ-75" value="" style="rounded=0;orthogonalLoop=1;jettySize=auto;html=1;endArrow=none;endFill=0;exitX=1;exitY=0.5;exitDx=0;exitDy=0;" edge="1" parent="1">
          <mxGeometry relative="1" as="geometry">
            <mxPoint x="148.25" y="375" as="sourcePoint" />
            <mxPoint x="160.75" y="375" as="targetPoint" />
          </mxGeometry>
        </mxCell>
        <mxCell id="AFIAiBZsqAD6h3aXdUzZ-76" value="" style="rounded=0;orthogonalLoop=1;jettySize=auto;html=1;endArrow=halfCircle;endFill=0;endSize=6;strokeWidth=1;exitX=0;exitY=0.5;exitDx=0;exitDy=0;entryX=0.5;entryY=0.5;entryDx=0;entryDy=0;entryPerimeter=0;" edge="1" parent="1">
          <mxGeometry relative="1" as="geometry">
            <mxPoint x="70" y="374.5" as="sourcePoint" />
            <mxPoint x="45" y="374.5" as="targetPoint" />
          </mxGeometry>
        </mxCell>
        <mxCell id="AFIAiBZsqAD6h3aXdUzZ-77" value="single-optional" style="text;html=1;align=center;verticalAlign=middle;resizable=0;points=[];autosize=1;" vertex="1" parent="1">
          <mxGeometry x="404" y="105" width="90" height="20" as="geometry" />
        </mxCell>
        <mxCell id="AFIAiBZsqAD6h3aXdUzZ-78" value="single-mandatory" style="text;html=1;align=center;verticalAlign=middle;resizable=0;points=[];autosize=1;" vertex="1" parent="1">
          <mxGeometry x="384" y="125" width="110" height="20" as="geometry" />
        </mxCell>
        <mxCell id="AFIAiBZsqAD6h3aXdUzZ-79" value="multiple-optional" style="text;html=1;align=center;verticalAlign=middle;resizable=0;points=[];autosize=1;" vertex="1" parent="1">
          <mxGeometry x="389" y="145" width="100" height="20" as="geometry" />
        </mxCell>
        <mxCell id="AFIAiBZsqAD6h3aXdUzZ-80" value="multiple mandatory" style="text;html=1;align=center;verticalAlign=middle;resizable=0;points=[];autosize=1;" vertex="1" parent="1">
          <mxGeometry x="374" y="170" width="120" height="20" as="geometry" />
        </mxCell>
      </root>
    </mxGraphModel>
  </diagram>
</mxfile>
